<svg width="120" height="120" viewBox="0 0 120 120" fill="none" xmlns="http://www.w3.org/2000/svg">
<path d="M114.44 54.6901H71.8999L101.98 24.6101C103.95 22.6401 103.95 19.45 101.98 17.49C100.01 15.52 96.8199 15.52 94.8599 17.49L64.78 47.5701V5.04004C64.78 2.26004 62.53 0 59.74 0C56.95 0 54.7 2.25004 54.7 5.04004V47.5701L24.6199 17.49C22.6499 15.52 19.46 15.52 17.5 17.49C15.53 19.46 15.53 22.6501 17.5 24.6101L47.5798 54.6901H5.04004C2.26004 54.6901 0 56.9401 0 59.7301C0 62.5201 2.25004 64.77 5.04004 64.77H47.5701L17.49 94.8501C15.52 96.8201 15.52 100.01 17.49 101.97C19.46 103.94 22.6499 103.94 24.6099 101.97L54.6899 71.89V114.43C54.6899 117.21 56.94 119.47 59.73 119.47C62.52 119.47 64.77 117.22 64.77 114.43V71.89L94.8499 101.97C96.8199 103.94 100.01 103.94 101.97 101.97C103.94 100 103.94 96.8101 101.97 94.8501L71.8899 64.77H114.42C117.2 64.77 119.46 62.5201 119.46 59.7301C119.46 56.9401 117.21 54.6901 114.42 54.6901H114.44Z" fill="currentColor"/>
</svg>
