<svg width="228" height="144" viewBox="0 0 228 144" fill="none" xmlns="http://www.w3.org/2000/svg">
<path d="M201.12 117.56C201.12 117.56 201.04 117.62 201.01 117.65C200.74 117.86 200.47 118.05 200.19 118.25C199.76 118.57 199.34 118.88 198.9 119.2C198.6 119.41 198.3 119.63 197.99 119.83C197.57 120.13 197.15 120.42 196.73 120.71C196.41 120.92 196.09 121.14 195.77 121.35C195.35 121.62 194.93 121.9 194.5 122.17C194.16 122.38 193.83 122.59 193.5 122.8C193.07 123.06 192.64 123.33 192.22 123.59C191.88 123.8 191.53 124 191.18 124.21C190.74 124.47 190.32 124.72 189.87 124.97C189.52 125.17 189.16 125.37 188.8 125.57C188.36 125.82 187.92 126.07 187.48 126.3C187.11 126.5 186.75 126.69 186.39 126.88C185.94 127.12 185.48 127.35 185.03 127.59C184.66 127.78 184.29 127.96 183.92 128.15C183.45 128.38 182.99 128.61 182.52 128.84C182.15 129.02 181.77 129.2 181.4 129.37C180.93 129.59 180.45 129.81 179.96 130.03C179.59 130.2 179.21 130.37 178.84 130.53C178.34 130.75 177.85 130.97 177.35 131.18C176.98 131.34 176.6 131.5 176.23 131.65C175.72 131.87 175.2 132.08 174.68 132.28C174.6 132.31 174.54 132.34 174.46 132.37C182.09 127.82 188.91 122.39 194.63 116.2C196.82 116.63 199 117.07 201.11 117.54L201.12 117.56Z" fill="currentColor"/>
<path d="M188.82 115.14C176.55 127.38 159.57 136.19 140.56 140.49C142.02 139.58 143.45 138.6 144.85 137.54C153.22 131.19 160.29 122.31 165.38 111.8C173.5 112.7 181.36 113.82 188.82 115.14Z" fill="currentColor"/>
<path d="M160.11 111.26C150.32 130.28 133.86 142.36 116.18 143.39V109.07C131.23 109.14 145.97 109.88 160.11 111.26Z" fill="currentColor"/>
<path d="M111.24 109.07V143.39C93.5701 142.37 77.0901 130.28 67.3101 111.26C81.4501 109.88 96.2001 109.14 111.24 109.07Z" fill="currentColor"/>
<path d="M52.9501 132.39C52.8801 132.37 52.8101 132.34 52.7401 132.31C52.2101 132.1 51.69 131.89 51.17 131.67C50.8 131.52 50.4301 131.36 50.0601 131.2C49.5601 130.98 49.0501 130.76 48.5601 130.54C48.1901 130.38 47.8201 130.2 47.4501 130.04C46.9601 129.83 46.4801 129.6 46.0001 129.38C45.6301 129.2 45.2501 129.03 44.8901 128.85C44.4201 128.63 43.9501 128.4 43.4901 128.16C43.1201 127.98 42.7601 127.79 42.3901 127.6C41.9301 127.37 41.47 127.13 41.02 126.89C40.66 126.7 40.2901 126.51 39.9401 126.32C39.5001 126.08 39.05 125.83 38.61 125.59C38.25 125.39 37.89 125.19 37.54 124.99C37.1 124.74 36.67 124.49 36.23 124.23C35.89 124.03 35.5401 123.83 35.2001 123.62C34.7601 123.35 34.35 123.09 33.92 122.83C33.58 122.62 33.25 122.41 32.91 122.2C32.49 121.93 32.07 121.65 31.65 121.38C31.33 121.17 31.0001 120.95 30.6901 120.74C30.2601 120.46 29.8401 120.16 29.4301 119.87C29.1201 119.66 28.8201 119.45 28.5101 119.23C28.0701 118.92 27.66 118.6 27.23 118.29C26.96 118.08 26.67 117.89 26.41 117.68C26.37 117.65 26.33 117.62 26.3 117.59C28.41 117.12 30.57 116.68 32.77 116.25C38.5 122.45 45.3101 127.88 52.9501 132.43V132.39Z" fill="currentColor"/>
<path d="M86.86 140.49C67.84 136.18 50.87 127.37 38.6 115.14C46.05 113.82 53.91 112.7 62.04 111.8C67.14 122.32 74.2 131.19 82.57 137.54C83.97 138.6 85.4 139.58 86.86 140.49Z" fill="currentColor"/>
<path d="M29.07 111.91C26.45 112.44 23.9 113.01 21.43 113.59C8.12999 101.98 0.77001 88.4199 0.0100098 74.1699H14.42C14.97 87.6099 19.99 100.54 29.08 111.91H29.07Z" fill="currentColor"/>
<path d="M29.07 31.48C19.99 42.85 14.96 55.78 14.41 69.22H0C0.76 54.97 8.11998 41.4 21.42 29.79C23.89 30.38 26.44 30.94 29.06 31.48H29.07Z" fill="currentColor"/>
<path d="M59.92 36.3396C55.76 46.4796 53.43 57.7396 53.13 69.2296H19.36C19.95 56.1396 25.18 43.5296 34.59 32.5596C42.59 34.0596 51.09 35.3196 59.92 36.3396Z" fill="currentColor"/>
<path d="M59.92 107.06C51.09 108.07 42.59 109.33 34.59 110.83C25.18 99.8699 19.95 87.2599 19.36 74.1699H53.13C53.43 85.6599 55.76 96.9099 59.92 107.06Z" fill="currentColor"/>
<path d="M111.24 74.1699V104.11C95.41 104.19 79.9 105 65.06 106.51C60.78 96.6199 58.4 85.5199 58.09 74.1699H111.24Z" fill="currentColor"/>
<path d="M111.24 39.2797V69.2296H58.09C58.4 57.8796 60.78 46.7796 65.06 36.8896C79.89 38.3996 95.4 39.1997 111.24 39.2797Z" fill="currentColor"/>
<path d="M169.33 74.1699C169.02 85.5199 166.64 96.6099 162.37 106.51C147.53 105 132.03 104.19 116.19 104.11V74.1699H169.33Z" fill="currentColor"/>
<path d="M169.33 69.2296H116.19V39.2797C132.01 39.1997 147.53 38.3996 162.36 36.8896C166.63 46.7796 169.02 57.8796 169.33 69.2296Z" fill="currentColor"/>
<path d="M208.05 74.1699C207.47 87.2599 202.23 99.8699 192.82 110.83C184.8 109.33 176.31 108.07 167.49 107.06C171.66 96.9099 173.98 85.6599 174.28 74.1699H208.05Z" fill="currentColor"/>
<path d="M208.05 69.2296H174.28C173.98 57.7396 171.66 46.4796 167.49 36.3396C176.31 35.3296 184.81 34.0696 192.82 32.5596C202.24 43.5296 207.47 56.1296 208.05 69.2296Z" fill="currentColor"/>
<path d="M227.42 74.1699C226.65 88.4199 219.29 101.98 205.99 113.59C203.51 113 200.96 112.44 198.36 111.91C207.44 100.54 212.46 87.5999 213.01 74.1699H227.42Z" fill="currentColor"/>
<path d="M227.42 69.2296H213.01C212.46 55.7896 207.44 42.8596 198.36 31.4896C200.96 30.9596 203.51 30.3896 205.99 29.8096C219.29 41.4196 226.65 54.9796 227.42 69.2296Z" fill="currentColor"/>
<path d="M201.12 25.8398C199.01 26.3098 196.83 26.7498 194.64 27.1798C188.92 20.9898 182.11 15.5598 174.47 11.0098C174.54 11.0298 174.6 11.0598 174.67 11.0898C175.2 11.2998 175.72 11.5198 176.25 11.7398C176.62 11.8898 176.98 12.0498 177.35 12.2098C177.85 12.4198 178.36 12.6498 178.85 12.8698C179.22 13.0298 179.59 13.1998 179.96 13.3698C180.45 13.5898 180.94 13.8198 181.42 14.0398C181.79 14.2198 182.15 14.3898 182.52 14.5698C182.99 14.7998 183.47 15.0298 183.94 15.2598C184.31 15.4398 184.67 15.6298 185.02 15.8098C185.49 16.0498 185.94 16.2798 186.41 16.5298C186.76 16.7198 187.12 16.8998 187.47 17.0898C187.92 17.3398 188.38 17.5898 188.83 17.8498C189.17 18.0398 189.52 18.2298 189.86 18.4298C190.31 18.6898 190.75 18.9498 191.2 19.2098L192.21 19.8098C192.65 20.0798 193.1 20.3498 193.53 20.6298C193.85 20.8398 194.17 21.0298 194.49 21.2398C194.93 21.5198 195.37 21.7998 195.8 22.0898C196.11 22.2998 196.41 22.4898 196.72 22.6998C197.17 22.9998 197.61 23.2998 198.04 23.6198C198.32 23.8198 198.61 24.0098 198.89 24.2098C199.36 24.5498 199.81 24.8798 200.26 25.2198C200.5 25.3998 200.76 25.5898 201 25.7698C201.04 25.7998 201.08 25.8298 201.12 25.8698V25.8398Z" fill="currentColor"/>
<path d="M188.82 28.2601C181.36 29.5701 173.51 30.7002 165.38 31.5902C160.29 21.0802 153.22 12.2102 144.85 5.86015C143.45 4.80015 142.02 3.82016 140.56 2.91016C159.58 7.22016 176.55 16.0201 188.82 28.2601Z" fill="currentColor"/>
<path d="M160.11 32.13C145.97 33.52 131.23 34.25 116.18 34.33V0C133.85 1.03 150.32 13.12 160.11 32.13Z" fill="currentColor"/>
<path d="M111.24 0V34.33C96.1901 34.25 81.4401 33.52 67.3101 32.13C77.1001 13.11 93.5601 1.03 111.24 0Z" fill="currentColor"/>
<path d="M86.86 2.89964C85.39 3.81964 83.96 4.78966 82.56 5.84966C74.19 12.1997 67.13 21.0697 62.03 31.5797C53.89 30.6897 46.04 29.5596 38.59 28.2496C50.86 16.0096 67.84 7.19965 86.86 2.88965V2.89964Z" fill="currentColor"/>
<path d="M52.9501 11.0098C45.3201 15.5498 38.5 20.9798 32.77 27.1798C30.57 26.7398 28.4 26.2998 26.29 25.8398C26.33 25.8198 26.36 25.7898 26.4 25.7598C26.67 25.5498 26.96 25.3498 27.23 25.1398C27.66 24.8298 28.0801 24.5098 28.5001 24.1998C28.8101 23.9898 29.11 23.7698 29.42 23.5598C29.83 23.2698 30.25 22.9798 30.67 22.6898C30.99 22.4798 31.3201 22.2698 31.6401 22.0598C32.0601 21.7798 32.48 21.4998 32.9 21.2298C33.24 21.0198 33.57 20.8098 33.91 20.5998C34.34 20.3298 34.7601 20.0698 35.1901 19.8098C35.5301 19.5998 35.88 19.3998 36.22 19.1898C36.66 18.9398 37.09 18.6798 37.53 18.4298C37.89 18.2198 38.24 18.0298 38.59 17.8298C39.03 17.5898 39.4801 17.3398 39.9301 17.0998C40.2901 16.8998 40.6501 16.7098 41.0101 16.5198C41.4601 16.2798 41.9201 16.0498 42.3801 15.8098C42.7501 15.6298 43.11 15.4398 43.48 15.2598C43.95 15.0198 44.4201 14.7898 44.8901 14.5698C45.2601 14.3898 45.6201 14.2198 45.9901 14.0398C46.4701 13.8098 46.9601 13.5898 47.4501 13.3698C47.8201 13.1998 48.1801 13.0298 48.5601 12.8698C49.0601 12.6398 49.5701 12.4298 50.0701 12.2098C50.4401 12.0498 50.8 11.8898 51.17 11.7398C51.69 11.5298 52.2201 11.3098 52.7501 11.0998C52.8101 11.0798 52.8801 11.0498 52.9501 11.0198V11.0098Z" fill="currentColor"/>
</svg>
