<svg width="154" height="154" viewBox="0 0 154 154" fill="none" xmlns="http://www.w3.org/2000/svg">
<path d="M147.7 47.59L147.35 46.73H147.33C135.54 18.97 108.77 0.790039 78.63 0.0400391C78.45 0.0400391 78.26 0.0300195 78.08 0.0200195C77.89 0.0200195 77.71 0.01 77.52 0H77.23C77.15 0 77.08 0 77 0C76.9 0 76.81 0 76.71 0C76.61 0 76.52 0 76.42 0C76.34 0 76.27 0 76.19 0H75.88C75.68 0 75.49 0.0100195 75.29 0.0200195C75.14 0.0200195 74.99 0.0200293 74.84 0.0300293C44.69 0.750029 17.89 18.95 6.09 46.72H6.07L5.72 47.59C1.92 56.84 0 66.64 0 76.71C0 86.78 1.93 96.59 5.72 105.84L6.07 106.7H6.09C17.87 134.43 44.6 152.61 74.71 153.39C74.96 153.39 75.2 153.41 75.45 153.41C75.6 153.41 75.75 153.42 75.91 153.42H76.19C76.33 153.42 76.47 153.42 76.61 153.42C76.64 153.42 76.68 153.42 76.71 153.42C76.74 153.42 76.78 153.42 76.81 153.42C76.95 153.42 77.09 153.42 77.23 153.42H77.54C77.7 153.42 77.86 153.41 78.02 153.41C78.23 153.41 78.45 153.4 78.66 153.39C108.76 152.64 135.52 134.45 147.31 106.72H147.33L147.68 105.85C151.48 96.6 153.41 86.8 153.41 76.72C153.41 66.64 151.48 56.84 147.69 47.59H147.7ZM148.35 80.88C148.33 81.22 148.31 81.57 148.29 81.91C148.27 82.16 148.25 82.4 148.23 82.65C148.2 82.98 148.18 83.3001 148.15 83.6201C148.13 83.8801 148.1 84.13 148.07 84.39C148.04 84.7 148 85.02 147.97 85.33C147.94 85.59 147.9 85.85 147.87 86.11C147.83 86.42 147.79 86.73 147.75 87.03C147.71 87.29 147.67 87.55 147.63 87.81C147.58 88.11 147.54 88.42 147.49 88.72C147.45 88.98 147.4 89.25 147.35 89.51C147.3 89.81 147.24 90.11 147.19 90.4C147.14 90.66 147.08 90.93 147.03 91.19C146.97 91.48 146.91 91.78 146.84 92.07C146.78 92.33 146.72 92.6 146.66 92.86C146.59 93.15 146.53 93.44 146.45 93.7401C146.39 94.0001 146.32 94.27 146.25 94.53C146.18 94.82 146.1 95.11 146.02 95.4C145.95 95.66 145.88 95.93 145.8 96.19C145.72 96.48 145.64 96.76 145.55 97.05C145.47 97.3101 145.39 97.58 145.31 97.84C145.22 98.12 145.13 98.41 145.04 98.69C144.96 98.95 144.87 99.21 144.78 99.48C144.69 99.76 144.59 100.04 144.49 100.32C144.4 100.58 144.31 100.84 144.21 101.1C144.11 101.38 144.01 101.65 143.9 101.93C143.8 102.19 143.7 102.45 143.6 102.71C143.55 102.84 143.5 102.97 143.45 103.1C141.13 104.22 138.66 105.29 136.06 106.3C139.01 97.91 140.75 88.77 141 79.19H148.41C148.4 79.52 148.39 79.8501 148.37 80.1801C148.36 80.4101 148.34 80.64 148.33 80.88H148.35ZM9.96 103.11C9.91 102.98 9.85 102.85 9.8 102.71C9.7 102.45 9.6 102.2 9.51 101.94C9.4 101.66 9.3 101.38 9.2 101.1C9.11 100.84 9.01 100.58 8.92 100.32C8.82 100.04 8.73 99.76 8.63 99.48C8.54 99.22 8.46 98.96 8.37 98.7C8.28 98.42 8.19 98.13 8.1 97.85C8.02 97.59 7.94 97.33 7.86 97.06C7.78 96.77 7.69 96.49 7.61 96.2C7.54 95.94 7.46 95.67 7.39 95.41C7.31 95.12 7.24 94.83 7.16 94.54C7.09 94.28 7.03 94.01 6.96 93.75C6.89 93.46 6.82 93.1701 6.75 92.8701C6.69 92.6101 6.63 92.34 6.57 92.08C6.51 91.79 6.45 91.49 6.38 91.19C6.33 90.93 6.27 90.66 6.22 90.4C6.16 90.1 6.11 89.8 6.06 89.5C6.01 89.24 5.96 88.97 5.92 88.71C5.87 88.41 5.82 88.1001 5.78 87.8C5.74 87.54 5.7 87.28 5.66 87.02C5.62 86.71 5.58 86.4 5.54 86.09C5.51 85.83 5.47 85.57 5.44 85.32C5.4 85.01 5.37 84.6901 5.34 84.3701C5.31 84.1201 5.28 83.86 5.26 83.61C5.23 83.28 5.2 82.96 5.18 82.63C5.16 82.38 5.14 82.14 5.12 81.89C5.1 81.55 5.08 81.2 5.06 80.86C5.05 80.63 5.03 80.4 5.02 80.17C5 79.84 5 79.5101 4.98 79.1801H12.39C12.65 88.7601 14.38 97.9 17.33 106.29C14.73 105.29 12.26 104.22 9.94 103.09L9.96 103.11ZM5.07 72.57C5.09 72.23 5.11 71.88 5.13 71.54C5.15 71.29 5.17 71.05 5.19 70.8C5.22 70.47 5.24 70.15 5.27 69.82C5.29 69.56 5.32 69.3101 5.35 69.05C5.38 68.7401 5.42 68.42 5.45 68.11C5.48 67.85 5.52 67.59 5.55 67.33C5.59 67.02 5.63 66.71 5.67 66.41C5.71 66.15 5.75 65.89 5.79 65.63C5.84 65.33 5.88 65.02 5.93 64.72C5.97 64.46 6.02 64.1901 6.07 63.9301C6.12 63.6301 6.18 63.34 6.23 63.04C6.28 62.77 6.34 62.51 6.39 62.25C6.45 61.96 6.51 61.6601 6.57 61.3701C6.63 61.1001 6.69 60.84 6.75 60.57C6.82 60.28 6.88 59.99 6.95 59.7C7.02 59.43 7.08 59.17 7.15 58.9C7.22 58.61 7.3 58.33 7.37 58.04C7.44 57.77 7.52 57.5101 7.59 57.2401C7.67 56.9601 7.75 56.68 7.83 56.39C7.91 56.12 7.99 55.86 8.07 55.59C8.16 55.31 8.24 55.03 8.33 54.75C8.42 54.48 8.5 54.22 8.59 53.95C8.68 53.67 8.78 53.4001 8.87 53.1201C8.96 52.8501 9.06 52.59 9.15 52.32C9.25 52.05 9.35 51.77 9.45 51.5C9.55 51.24 9.65 50.97 9.75 50.71C9.8 50.58 9.85 50.45 9.9 50.33C12.22 49.2 14.69 48.13 17.29 47.13C14.34 55.52 12.6 64.66 12.35 74.2401H4.94C4.95 73.91 4.96 73.58 4.98 73.25C4.99 73.02 5.01 72.79 5.02 72.56L5.07 72.57ZM143.46 50.34C143.51 50.47 143.56 50.6 143.61 50.73C143.71 50.99 143.81 51.25 143.91 51.51C144.01 51.79 144.12 52.06 144.22 52.34C144.31 52.6 144.41 52.87 144.5 53.13C144.6 53.41 144.69 53.69 144.78 53.97C144.87 54.23 144.95 54.5 145.04 54.76C145.13 55.04 145.22 55.32 145.31 55.61C145.39 55.87 145.47 56.14 145.55 56.4C145.63 56.68 145.72 56.97 145.8 57.26C145.87 57.52 145.95 57.7901 146.02 58.05C146.1 58.34 146.17 58.62 146.24 58.91C146.31 59.17 146.38 59.44 146.44 59.71C146.51 60 146.58 60.29 146.64 60.58C146.7 60.84 146.76 61.1101 146.82 61.3701C146.88 61.6601 146.94 61.96 147 62.25C147.05 62.51 147.11 62.78 147.16 63.04C147.22 63.34 147.27 63.64 147.32 63.94C147.37 64.2 147.42 64.46 147.46 64.73C147.51 65.03 147.56 65.34 147.6 65.64C147.64 65.9 147.68 66.16 147.72 66.42C147.76 66.73 147.8 67.04 147.84 67.34C147.87 67.6 147.91 67.8601 147.94 68.1201C147.98 68.4301 148.01 68.75 148.04 69.07C148.07 69.32 148.1 69.58 148.12 69.83C148.15 70.16 148.18 70.48 148.2 70.81C148.22 71.06 148.24 71.3 148.26 71.55C148.28 71.89 148.3 72.24 148.32 72.58C148.33 72.81 148.35 73.04 148.36 73.27C148.38 73.6 148.38 73.93 148.4 74.26H140.99C140.73 64.68 139 55.54 136.05 47.15C138.65 48.15 141.12 49.22 143.44 50.35L143.46 50.34ZM106.25 113.99C97.54 115.33 88.45 116.07 79.18 116.18V79.2H111.32C111.11 91.65 109.37 103.55 106.25 113.99ZM42.1 79.2H74.24V116.18C64.97 116.07 55.88 115.34 47.17 113.99C44.05 103.55 42.3 91.65 42.1 79.2ZM74.24 74.25H42.1C42.31 61.8 44.05 49.9 47.17 39.46C55.88 38.12 64.96 37.38 74.24 37.27V74.25ZM79.19 74.25V37.27C88.46 37.38 97.55 38.11 106.26 39.46C109.38 49.9 111.13 61.8 111.33 74.25H79.19ZM79.19 32.32V5.14001C87.21 6.35001 94.79 13.41 100.75 25.33C102.14 28.1 103.39 31.07 104.52 34.19C96.33 33.04 87.83 32.42 79.19 32.32ZM74.24 5.14001V32.32C65.6 32.42 57.11 33.04 48.91 34.19C50.04 31.07 51.29 28.11 52.68 25.33C58.64 13.41 66.22 6.35001 74.24 5.14001ZM37.15 74.25H17.36C17.66 63.78 19.82 53.8701 23.46 44.9901C29.16 43.1401 35.29 41.59 41.77 40.38C38.93 50.71 37.34 62.24 37.15 74.26V74.25ZM37.15 79.2C37.34 91.21 38.93 102.75 41.77 113.08C35.29 111.87 29.15 110.32 23.46 108.47C19.82 99.59 17.66 89.68 17.36 79.2H37.15ZM74.24 121.13V148.3C66.22 147.09 58.64 140.03 52.68 128.11C51.3 125.34 50.04 122.38 48.92 119.26C57.11 120.41 65.6 121.03 74.24 121.13ZM79.19 148.3V121.13C87.83 121.03 96.32 120.41 104.51 119.26C103.38 122.38 102.13 125.34 100.75 128.11C94.79 140.03 87.21 147.09 79.19 148.3ZM116.27 79.2H136.06C135.76 89.68 133.6 99.59 129.96 108.47C124.26 110.32 118.12 111.87 111.65 113.08C114.49 102.75 116.08 91.21 116.27 79.2ZM116.27 74.25C116.08 62.24 114.49 50.7 111.65 40.38C118.12 41.59 124.26 43.1401 129.96 44.9901C133.6 53.8701 135.76 63.78 136.06 74.26H116.27V74.25ZM110.05 35.06C108.64 30.81 107.02 26.8101 105.17 23.1201C102.16 17.0901 98.71 12.16 94.95 8.42004C108.44 13.69 119.83 24.65 127.19 38.94C121.78 37.38 116.04 36.08 110.05 35.05V35.06ZM58.47 8.42004C54.71 12.16 51.26 17.0901 48.25 23.1201C46.41 26.8101 44.78 30.81 43.37 35.06C37.38 36.09 31.64 37.39 26.23 38.95C33.58 24.65 44.98 13.7 58.47 8.42004ZM43.37 118.39C44.78 122.64 46.4 126.64 48.25 130.32C51.26 136.35 54.71 141.28 58.47 145.02C44.98 139.75 33.59 128.79 26.23 114.5C31.63 116.06 37.37 117.36 43.37 118.39ZM94.95 145.02C98.71 141.28 102.16 136.35 105.17 130.32C107.01 126.63 108.64 122.63 110.05 118.39C116.04 117.36 121.78 116.06 127.19 114.5C119.84 128.79 108.45 139.75 94.96 145.02H94.95ZM140.34 43.52C138.19 42.63 135.94 41.78 133.63 40.98C129.75 32.23 124.49 24.47 118.2 18.13C127.36 24.61 135 33.25 140.35 43.52H140.34ZM35.24 18.1201C28.94 24.4701 23.68 32.23 19.79 40.9901C17.47 41.7901 15.23 42.63 13.08 43.52C18.43 33.24 26.08 24.6001 35.24 18.1201ZM13.08 109.93C15.23 110.82 17.47 111.67 19.79 112.46C23.67 121.21 28.93 128.96 35.22 135.31C26.07 128.83 18.43 120.2 13.08 109.93ZM118.2 135.31C124.49 128.97 129.75 121.22 133.63 112.47C135.95 111.67 138.19 110.82 140.34 109.93C134.99 120.2 127.35 128.83 118.2 135.31Z" fill="currentColor"/>

    <style>
        path { fill: #000; }
        @media (prefers-color-scheme: dark) {
            path { fill: #c2410c; }
        }
    </style>
</svg>
