<svg width="159" height="159" viewBox="0 0 159 159" fill="none" xmlns="http://www.w3.org/2000/svg">
<path d="M151.794 60.0645C136.614 32.0245 101.564 21.6044 73.5245 36.7844C65.3945 41.1844 58.7545 47.2645 53.7845 54.3445C58.1145 40.5145 67.6245 28.2845 81.3745 20.8345C96.6145 12.5845 113.914 11.8945 128.964 17.4845C111.404 -0.595497 83.3245 -5.61551 60.0645 6.97449C32.0245 22.1545 21.6045 57.2045 36.7845 85.2445C41.1845 93.3745 47.2645 100.015 54.3445 104.985C40.5145 100.655 28.2845 91.1444 20.8345 77.3944C12.5845 62.1544 11.8945 44.8544 17.4845 29.8044C-0.595497 47.3644 -5.61551 75.4445 6.97449 98.7045C22.1545 126.744 57.2045 137.165 85.2445 121.985C93.3745 117.585 100.015 111.504 104.985 104.424C100.655 118.254 91.1445 130.484 77.3945 137.924C62.1545 146.174 44.8545 146.864 29.8045 141.274C47.3645 159.354 75.4445 164.374 98.7045 151.784C126.744 136.604 137.165 101.554 121.985 73.5144C117.585 65.3844 111.505 58.7444 104.425 53.7744C118.255 58.1044 130.484 67.6145 137.934 81.3645C146.184 96.6045 146.874 113.904 141.284 128.954C159.364 111.394 164.384 83.3145 151.794 60.0545V60.0645ZM100.684 59.6644C106.844 71.0444 108.795 83.5745 107.055 95.4645C104.585 97.3845 101.955 99.1445 99.1145 100.684C87.7345 106.844 75.2045 108.794 63.3145 107.054C61.3945 104.584 59.6345 101.955 58.0945 99.1145C51.9345 87.7345 49.9845 75.2045 51.7245 63.3145C54.1945 61.3945 56.8245 59.6345 59.6645 58.0945C71.0445 51.9345 83.5745 49.9845 95.4645 51.7245C97.3845 54.1945 99.1445 56.8244 100.684 59.6644Z" fill="#C2410C"/>
</svg>

