<?xml version="1.0" encoding="UTF-8"?>
<svg version="1.1" xmlns="http://www.w3.org/2000/svg" width="512" height="512">
<path d="M0 0 C0.66 0 1.32 0 2 0 C3.77102553 2.04651839 5.42663534 4.09889798 7.0625 6.25 C7.5469458 6.88317139 8.0313916 7.51634277 8.53051758 8.16870117 C9.53083847 9.47688861 10.52943958 10.78639278 11.52636719 12.09716797 C12.89128192 13.85961751 14.29545754 15.57633503 15.7265625 17.28515625 C16.53867187 18.28417969 17.35078125 19.28320312 18.1875 20.3125 C18.92355469 21.19550781 19.65960938 22.07851562 20.41796875 22.98828125 C24.20310569 30.19406046 21.46637696 37.79839626 19.25845337 45.13285828 C18.84959993 46.44540981 18.4405247 47.75789227 18.03125 49.0703125 C17.6031003 50.47592877 17.17607906 51.88188918 16.75009155 53.28816223 C15.59073219 57.10449165 14.41615651 60.91598506 13.23897552 64.7268486 C11.98741812 68.78845015 10.75047552 72.85449748 9.51220703 76.92016602 C7.41762438 83.79181375 5.31526462 90.66103767 3.20800781 97.52880859 C0.0857087 107.70743286 -3.01156795 117.89356002 -6.1015625 128.08203125 C-6.60464001 129.74050539 -7.10772228 131.39897809 -7.61080933 133.05744934 C-8.36368844 135.53944007 -9.11655041 138.02143599 -9.86932945 140.50345707 C-12.3784002 148.7752719 -14.89338561 157.04528531 -17.40862656 165.3152256 C-22.52560455 182.14002731 -27.63067375 198.96840984 -32.72747612 215.79933357 C-34.17987047 220.5948247 -35.63457655 225.38961029 -37.09033203 230.18408203 C-40.4814321 241.35551209 -43.86739006 252.5281206 -47.19345093 263.71913147 C-48.48988556 268.0786413 -49.79414777 272.43578864 -51.0993042 276.79269409 C-51.69111817 278.77689709 -52.27885154 280.76232262 -52.86212158 282.74905396 C-53.64797861 285.42567848 -54.44738327 288.09789345 -55.25 290.76953125 C-55.47199066 291.54004822 -55.69398132 292.31056519 -55.92269897 293.10443115 C-57.25660879 297.48545881 -58.77131427 300.61431943 -62 304 C-64.79714791 305.39857396 -67.09538987 305.1307371 -70.2264061 305.13701439 C-70.8752517 305.13966622 -71.52409731 305.14231804 -72.1926049 305.14505023 C-74.38783736 305.1527686 -76.58301413 305.15330336 -78.77825928 305.15390015 C-80.35963368 305.1579131 -81.94100704 305.16235104 -83.52237916 305.1671797 C-87.88448038 305.17916967 -92.24657053 305.18479925 -96.60868502 305.18936086 C-101.3068391 305.19530775 -106.00497988 305.20691983 -110.703125 305.21765137 C-122.05725208 305.24219576 -133.41138358 305.2568052 -144.76552904 305.26971143 C-147.9707987 305.27342178 -151.17606793 305.27739514 -154.38133717 305.2814641 C-174.27273312 305.30669824 -194.16412974 305.32875795 -214.05553818 305.34119225 C-218.66495516 305.34412209 -223.27437213 305.34708373 -227.88378906 305.35009766 C-229.02948027 305.35084371 -230.17517148 305.35158976 -231.3555806 305.35235842 C-249.92331083 305.36501739 -268.49094542 305.39824657 -287.05863091 305.43989949 C-306.10847291 305.48228481 -325.15826588 305.50588332 -344.20815492 305.51111281 C-354.90934048 305.51453072 -365.61037657 305.52633062 -376.31151581 305.55921555 C-385.42346337 305.58717045 -394.53523083 305.59823546 -403.64721796 305.58702008 C-408.29813109 305.58182179 -412.94866678 305.5847959 -417.59952545 305.60948563 C-421.85594552 305.63189328 -426.11171516 305.63130488 -430.36814597 305.61228175 C-431.90924142 305.60946977 -433.45038018 305.61514656 -434.9914057 305.63009469 C-447.95429122 305.74816372 -447.95429122 305.74816372 -451.85565567 302.56986427 C-452.5632893 301.72180906 -453.27092293 300.87375385 -454 300 C-454.78987305 299.14571411 -454.78987305 299.14571411 -455.59570312 298.27416992 C-455.98693359 297.76474854 -456.37816406 297.25532715 -456.78125 296.73046875 C-457.45160278 295.86748169 -457.45160278 295.86748169 -458.13549805 294.98706055 C-458.58578369 294.39320557 -459.03606934 293.79935059 -459.5 293.1875 C-460.21119995 292.26481323 -460.21119995 292.26481323 -460.93676758 291.32348633 C-462.29777612 289.553919 -463.64958485 287.77765631 -465 286 C-465.67417969 285.1234375 -466.34835937 284.246875 -467.04296875 283.34375 C-471 278.15543349 -471 278.15543349 -471 277 C-470.2230044 276.99902319 -469.4460088 276.99804638 -468.64546788 276.99703997 C-422.59207525 276.9387651 -376.53872993 276.86496613 -330.48539556 276.77101372 C-324.9554332 276.75974559 -319.42547059 276.74860713 -313.89550781 276.73754883 C-312.24413719 276.7342433 -312.24413719 276.7342433 -310.55940555 276.730871 C-292.73472185 276.69550081 -274.91003819 276.67063509 -257.08533241 276.64965298 C-238.79487532 276.62788873 -220.50446376 276.59483234 -202.21404541 276.55129844 C-190.92833688 276.52479254 -179.6426851 276.50708933 -168.35694699 276.50065396 C-160.61738172 276.49539685 -152.87788783 276.47916896 -145.13836081 276.45433434 C-140.67339966 276.4403305 -136.20856626 276.43114439 -131.74358177 276.43499184 C-127.6522808 276.43841033 -123.56125235 276.42798974 -119.47000717 276.40676448 C-117.99340153 276.40151054 -116.51676748 276.40124699 -115.04016222 276.40660437 C-104.40113499 276.44125951 -94.55804843 275.96585337 -86 269 C-82.14960767 264.86486646 -79.99135314 261.24414942 -78.3515625 255.8125 C-78.1107193 255.05461182 -77.8698761 254.29672363 -77.62173462 253.51586914 C-76.72974659 250.68257106 -75.86422787 247.84188896 -75 245 C-74.4343243 243.1577597 -73.86864523 241.31552043 -73.30289555 239.47330284 C-70.54629634 230.48633197 -67.83362368 221.48620039 -65.12360001 212.48509979 C-63.84961602 208.25590221 -62.57254746 204.02763637 -61.2956543 199.79931641 C-59.72417516 194.5949436 -58.15290097 189.3905095 -56.58287048 184.18569946 C-51.87571359 168.58113408 -47.15121396 152.98185751 -42.42164993 137.38407135 C-40.79388897 132.01546218 -39.16679941 126.64664945 -37.53958702 121.27787399 C-36.93094236 119.26976519 -36.32226221 117.26166715 -35.71357727 115.25357056 C-32.70597154 105.33096478 -29.70038461 95.40774834 -26.6953125 85.484375 C-22.8993509 72.94937247 -19.10121876 60.41503024 -15.29974365 47.88169861 C-13.25953947 41.15501387 -11.22118819 34.42777494 -9.18534851 27.69976807 C-8.13115666 24.21822881 -7.07442362 20.73746613 -6.01663208 17.25701904 C-5.55334097 15.73086708 -5.09113233 14.20438603 -4.63009644 12.67755127 C-4.02322607 10.66825321 -3.41258275 8.66014475 -2.80078125 6.65234375 C-2.30831909 5.02800415 -2.30831909 5.02800415 -1.8059082 3.37084961 C-1 1 -1 1 0 0 Z " fill="#99c965" transform="translate(490,52)"/>
<path d="M0 0 C27.39 0 54.78 0 83 0 C83.33 10.89 83.66 21.78 84 33 C87.78263913 45.60879711 92.27376978 54.23845251 104.03710938 60.65722656 C107.39181055 62.20578238 110.77267463 63.65165109 114.1875 65.0625 C116.58933449 66.09581537 118.99038494 67.13095516 121.390625 68.16796875 C122.53208984 68.65571777 123.67355469 69.1434668 124.84960938 69.64599609 C128.74688926 71.32100495 132.61303663 73.04000591 136.4375 74.875 C137.44683594 75.34679687 138.45617187 75.81859375 139.49609375 76.3046875 C143.49216471 79.0102956 145.49226453 82.47679359 147 87 C147.27320187 89.95359485 147.27714771 92.91012099 147.3125 95.875 C147.34150391 96.67808594 147.37050781 97.48117187 147.40039062 98.30859375 C147.4441877 102.39856644 147.33681591 104.46526134 145.10546875 108.0078125 C141.3732429 111.53923214 138.13505964 111.14835102 133.23832703 111.14717102 C132.42751909 111.15084771 131.61671115 111.1545244 130.78133327 111.1583125 C128.04912147 111.16937519 125.31694767 111.17319753 122.5847168 111.17700195 C120.63196694 111.1832646 118.67921829 111.18991122 116.72647095 111.19691467 C111.41031165 111.21434174 106.09416136 111.22488087 100.77798057 111.2331202 C97.4588917 111.23826625 94.13980565 111.24434213 90.82071877 111.25063133 C80.44260407 111.26968731 70.06449652 111.28391814 59.68636769 111.2922433 C47.69423697 111.30202123 35.70229056 111.3283536 23.71022481 111.36874419 C14.44903487 111.39886991 5.18789788 111.41370877 -4.07334012 111.41702431 C-9.60847369 111.41937866 -15.14341045 111.42838917 -20.67849159 111.45348549 C-25.88481106 111.4767095 -31.09080333 111.4810223 -36.2971611 111.47072411 C-38.20917916 111.47022727 -40.12121302 111.4765911 -42.03318214 111.49028015 C-44.64164195 111.5079125 -47.2489165 111.50093607 -49.8573761 111.48774719 C-50.61574636 111.49871644 -51.37411663 111.50968568 -52.15546781 111.52098733 C-57.050271 111.46114871 -59.57031675 110.49803988 -63 107 C-64.67387623 103.65224754 -64.22672443 99.92753953 -64.25 96.25 C-64.270625 95.45078125 -64.29125 94.6515625 -64.3125 93.828125 C-64.35048579 88.05428492 -63.63276921 84.02790826 -59.70678711 79.51269531 C-54.35465927 74.3561436 -47.56721806 71.84565193 -40.8125 69 C-21.72913296 61.92942419 -21.72913296 61.92942419 -6.875 48.875 C-6.15957031 47.85019531 -6.15957031 47.85019531 -5.4296875 46.8046875 C2.22753744 31.78313694 -0.51124886 17.38246109 0 0 Z " fill="#99c965" transform="translate(219,374)"/>
<path d="M0 0 C31.02 0 62.04 0 94 0 C90.62167057 13.51331771 90.62167057 13.51331771 88.70336914 19.96826172 C88.49477768 20.67238693 88.28618622 21.37651215 88.0712738 22.10197449 C87.39565862 24.37881226 86.71589008 26.65437523 86.03515625 28.9296875 C85.8001837 29.71657078 85.56521114 30.50345406 85.32311821 31.31418228 C84.08325232 35.46529466 82.84002073 39.61538134 81.59399414 43.76464844 C80.31323306 48.03211534 79.04453338 52.30307166 77.77842045 56.57490349 C76.7959644 59.88155456 75.80454617 63.1854695 74.81069756 66.48871231 C74.33889622 68.06248898 73.87045448 69.63727711 73.40553474 71.21310043 C72.75518414 73.41441118 72.09215731 75.61152697 71.42602539 77.80810547 C71.05312881 79.0554245 70.68023224 80.30274353 70.29603577 81.58786011 C68.74944385 85.65965203 67.05260441 89.9736978 63 92 C60.16219263 92.09331014 57.34910226 92.12575361 54.51123047 92.11352539 C53.19406036 92.11374443 53.19406036 92.11374443 51.85028076 92.1139679 C48.9392248 92.11326958 46.02823232 92.10548095 43.1171875 92.09765625 C41.10222407 92.09579178 39.08726019 92.09436802 37.07229614 92.09336853 C31.7622147 92.08954562 26.4521605 92.07971724 21.14208984 92.06866455 C15.72624073 92.05844559 10.31038722 92.05386987 4.89453125 92.04882812 C-5.73699115 92.03809479 -16.36849331 92.02102106 -27 92 C-25.79637626 86.28774703 -24.40540753 80.69296085 -22.69335938 75.11279297 C-22.47194778 74.38145142 -22.25053619 73.65010986 -22.02241516 72.89660645 C-21.29931116 70.51084097 -20.57155263 68.12652335 -19.84375 65.7421875 C-19.33542649 64.06797462 -18.82741586 62.39366671 -18.31970215 60.7192688 C-16.98847924 56.33173462 -15.65337294 51.94539214 -14.31732178 47.55932617 C-12.69597324 42.23433861 -11.07884627 36.90806789 -9.46149445 31.58186531 C-8.20296093 27.4373903 -6.94368581 23.29314634 -5.68200684 19.14962769 C-5.33331795 18.00338425 -5.33331795 18.00338425 -4.97758484 16.83398438 C-4.54760258 15.42052196 -4.11719137 14.00718992 -3.68623352 12.59402466 C-2.41318931 8.40665226 -1.20268651 4.2094028 0 0 Z " fill="#99c965" transform="translate(327,219)"/>
<path d="M0 0 C28.71 0 57.42 0 87 0 C83.55214486 13.79142056 83.55214486 13.79142056 81.47216797 20.59838867 C81.23925049 21.36906677 81.00633301 22.13974487 80.76635742 22.93377686 C80.01123977 25.4294094 79.25190263 27.92373228 78.4921875 30.41796875 C77.96061948 32.16957159 77.42921981 33.92122553 76.89797974 35.67292786 C75.79215202 39.31680269 74.684196 42.96002154 73.57470703 46.6027832 C72.1503225 51.28012078 70.7315446 55.9591378 69.31432915 60.63865185 C68.22199892 64.24313812 67.12667464 67.84670904 66.03042984 71.45000648 C65.50556677 73.17656958 64.98166647 74.90342565 64.45873642 76.63057518 C63.73189986 79.02964514 63.00103115 81.42744887 62.26904297 83.82495117 C62.05293365 84.5412117 61.83682434 85.25747223 61.61416626 85.99543762 C60.11425702 90.88574298 60.11425702 90.88574298 59 92 C56.29161914 92.09514592 53.60881487 92.12554932 50.90014648 92.11352539 C50.05143982 92.11367142 49.20273315 92.11381744 48.32830811 92.1139679 C45.50921109 92.11326848 42.69017929 92.10547478 39.87109375 92.09765625 C37.92196183 92.09579217 35.97282945 92.09436822 34.0236969 92.09336853 C28.88293168 92.08954255 23.74219453 92.07971159 18.60144043 92.06866455 C13.35994852 92.05845215 8.1184521 92.05387128 2.87695312 92.04882812 C-7.41537694 92.03808939 -17.70768614 92.02101201 -28 92 C-25.72254809 82.33037663 -22.91201919 72.85107387 -20 63.359375 C-19.51803645 61.78149196 -19.03626937 60.20354889 -18.5546875 58.62554932 C-17.55142705 55.34058699 -16.54604575 52.05628391 -15.5390625 48.77246094 C-14.25427723 44.58221621 -12.97451583 40.39045725 -11.69628906 36.19820786 C-10.70470319 32.94784189 -9.71063809 29.69823827 -8.71582031 26.44886017 C-8.24308831 24.90385022 -7.77106909 23.35862199 -7.29980469 21.81316376 C-6.63985282 19.65038895 -5.97659926 17.48865281 -5.3125 15.32714844 C-4.93738281 14.10203552 -4.56226562 12.87692261 -4.17578125 11.61468506 C-2.90315915 7.70228376 -1.44458392 3.8522238 0 0 Z " fill="#99c965" transform="translate(122,219)"/>
<path d="M0 0 C30.69 0 61.38 0 93 0 C92.33193341 5.34453272 91.74575039 9.41759806 90.20581055 14.39331055 C89.65469856 16.19139412 89.65469856 16.19139412 89.092453 18.02580261 C88.69067777 19.31281718 88.28876277 20.59978812 87.88671875 21.88671875 C87.47116239 23.23401717 87.05620056 24.5814991 86.64179993 25.92915344 C85.55268484 29.46541168 84.45562776 32.99915576 83.35681152 36.53240967 C82.25198565 40.08979585 81.15459713 43.6494733 80.05664062 47.20898438 C78.0725039 53.63808578 76.08260727 60.06536158 74.08432007 66.49008179 C73.33644391 68.91093908 72.59723786 71.33448603 71.86514282 73.76016235 C71.50721649 74.94379364 71.14929016 76.12742493 70.78051758 77.34692383 C70.30211174 78.94241814 70.30211174 78.94241814 69.81404114 80.57014465 C69 83 69 83 68 84 C65.10856849 84.09523905 62.24107936 84.12553027 59.34936523 84.11352539 C57.9885231 84.11374443 57.9885231 84.11374443 56.60018921 84.1139679 C53.58630015 84.11326841 50.57247207 84.10547434 47.55859375 84.09765625 C45.47494033 84.0957922 43.39128646 84.09436824 41.30763245 84.09336853 C35.81176554 84.08954234 30.31592487 84.0797112 24.82006836 84.06866455 C19.21663773 84.0584526 13.61320287 84.05387137 8.00976562 84.04882812 C-2.99350114 84.03808902 -13.99674839 84.02101139 -25 84 C-23.85591466 78.61776348 -22.58496198 73.33138852 -20.98461914 68.0625 C-20.79407455 67.43190674 -20.60352997 66.80131348 -20.4072113 66.15161133 C-19.78640841 64.10008325 -19.16088609 62.05003014 -18.53515625 60 C-18.09654035 58.55476527 -17.65818554 57.10945127 -17.22007751 55.6640625 C-16.30508856 52.64781344 -15.3879244 49.63223809 -14.46899414 46.6171875 C-13.29812059 42.77536353 -12.13123178 38.93234453 -10.96579838 35.08886719 C-10.06174165 32.10807061 -9.15630731 29.127694 -8.25039482 26.14746094 C-7.82000802 24.73152064 -7.38986354 23.31550666 -6.9599781 21.89941406 C-6.35617993 19.91172036 -5.7507158 17.92454155 -5.14477539 15.9375 C-4.80217178 14.81214844 -4.45956818 13.68679687 -4.10658264 12.52734375 C-2.79119444 8.33441124 -1.38963769 4.16891308 0 0 Z " fill="#99c965" transform="translate(358,118)"/>
<path d="M0 0 C27.06 0 54.12 0 82 0 C81.26511541 5.14419216 80.33410348 9.72103158 78.82275391 14.62841797 C78.60309464 15.35625488 78.38343536 16.0840918 78.15711975 16.83398438 C77.43518521 19.22157438 76.70598285 21.60687486 75.9765625 23.9921875 C75.46910039 25.66443582 74.96205766 27.33681145 74.45541382 29.00930786 C73.39426544 32.50861849 72.32982689 36.00690394 71.26269531 39.50439453 C69.90112424 43.96694397 68.54502489 48.43113031 67.19106483 52.89599419 C65.89217958 57.1786005 64.59080685 61.46044952 63.2890625 65.7421875 C63.04389515 66.54913937 62.7987278 67.35609123 62.54613113 68.18749619 C61.84410461 70.49633885 61.14035008 72.80464749 60.43603516 75.11279297 C60.23332504 75.7800943 60.03061493 76.44739563 59.82176208 77.13491821 C58.2967477 82.12282873 56.65093859 87.04718423 55 92 C27.61 92 0.22 92 -28 92 C-24.36499523 79.27748331 -20.71449025 66.57890353 -16.85546875 53.92578125 C-16.39551098 52.413621 -15.93565932 50.90142847 -15.47590637 49.38920593 C-14.52846959 46.27433526 -13.57978282 43.15984911 -12.63012695 40.0456543 C-11.41272973 36.05307943 -10.19864302 32.05950625 -8.98543835 28.06565571 C-8.04395283 24.96757405 -7.10077395 21.87001 -6.15706825 18.77260399 C-5.70799531 17.29793475 -5.25945202 15.8231041 -4.81145287 14.34810829 C-4.19137785 12.30746856 -3.5690265 10.26753716 -2.94604492 8.2277832 C-2.59330002 7.06978714 -2.24055511 5.91179108 -1.87712097 4.71870422 C-1 2 -1 2 0 0 Z " fill="#99c965" transform="translate(227,219)"/>
<path d="M0 0 C28.71 0 57.42 0 87 0 C86.27546096 5.07177329 85.37779888 9.59200342 83.89868164 14.43237305 C83.68716965 15.13898071 83.47565765 15.84558838 83.25773621 16.5736084 C82.56354672 18.88785101 81.86206745 21.19980753 81.16015625 23.51171875 C80.67279188 25.12870735 80.18577234 26.74579991 79.69908142 28.36299133 C78.68093942 31.74207998 77.65929227 35.12008221 76.63500977 38.49731445 C75.323245 42.8231108 74.01927514 47.15120906 72.71778202 51.4801054 C71.71424083 54.81550347 70.70710197 58.14980646 69.69882011 61.48377419 C69.21660872 63.07945708 68.73539558 64.67544201 68.25520515 66.27173424 C67.58394851 68.50086072 66.90798422 70.72850528 66.23071289 72.95581055 C66.03375824 73.61303604 65.83680359 74.27026154 65.63388062 74.94740295 C64.64483408 78.18178096 63.5246247 80.95075059 62 84 C33.29 84 4.58 84 -25 84 C-21.62509856 70.50039424 -21.62509856 70.50039424 -19.96289062 65.10498047 C-19.59240601 63.89687714 -19.22192139 62.6887738 -18.84020996 61.44406128 C-18.44561256 60.16841939 -18.05095784 58.89279522 -17.65625 57.6171875 C-17.24145631 56.26832652 -16.82695221 54.91937645 -16.41271973 53.57034302 C-15.33161819 50.05206915 -14.24685446 46.53493571 -13.16119385 43.01806641 C-11.84649205 38.75684519 -10.53614912 34.49428205 -9.22515106 30.23192024 C-8.20443732 26.91363002 -7.18312323 23.5955291 -6.15979004 20.27804565 C-5.60406311 18.47534714 -5.60406311 18.47534714 -5.03710938 16.63623047 C-4.71528687 15.5932077 -4.39346436 14.55018494 -4.06188965 13.47555542 C-2.69105443 8.98882389 -1.34808577 4.49361923 0 0 Z " fill="#99c965" transform="translate(152,118)"/>
<path d="M0 0 C26.4 0 52.8 0 80 0 C76.6253741 12.37362831 76.6253741 12.37362831 74.99462891 17.76220703 C74.63059967 18.96781281 74.26657043 20.17341858 73.89151001 21.41555786 C73.5032055 22.69631284 73.11488936 23.9770643 72.7265625 25.2578125 C72.31669646 26.61379625 71.90698086 27.96982548 71.49740601 29.32589722 C70.42545306 32.87391677 69.35185385 36.42143576 68.277771 39.96881104 C66.56941618 45.611733 64.8632371 51.25531286 63.15764618 56.89907074 C62.54467106 58.92675967 61.93106396 60.95425667 61.31744385 62.98175049 C58.95227321 70.80336829 56.60805007 78.63058419 54.37539673 86.49124146 C53.10715946 90.89284054 53.10715946 90.89284054 52 92 C49.81847005 92.12068028 47.6329908 92.17028537 45.44824219 92.19287109 C44.76362411 92.20104858 44.07900604 92.20922607 43.37364197 92.21765137 C41.09806198 92.24255133 38.82254467 92.25903509 36.546875 92.2734375 C35.7707209 92.27876118 34.9945668 92.28408485 34.19489288 92.28956985 C30.08485399 92.31632455 25.97484567 92.33568982 21.86474609 92.35009766 C17.6196718 92.3667295 13.37537633 92.41148723 9.13059616 92.4624691 C5.86717851 92.49614067 2.60394544 92.50767506 -0.65962982 92.51332474 C-2.2241484 92.5200402 -3.78865471 92.53527019 -5.35300446 92.55921555 C-7.54619981 92.59086422 -9.73729998 92.59090562 -11.93066406 92.58349609 C-13.80144623 92.59562637 -13.80144623 92.59562637 -15.71002197 92.60800171 C-19 92 -19 92 -21.9418335 90.02603149 C-25.09671116 85.38755392 -24.6379185 81.35315273 -23.61587715 75.9808979 C-23.11487377 73.97094657 -22.52906058 72.00841913 -21.90454102 70.03344727 C-21.57045227 68.92438774 -21.57045227 68.92438774 -21.22961426 67.79292297 C-20.49958741 65.38028416 -19.75204227 62.97348469 -19.00390625 60.56640625 C-18.48959517 58.88043908 -17.97634182 57.19414892 -17.46409607 55.5075531 C-16.11934323 51.09085175 -14.75936191 46.67898202 -13.3963623 42.2678833 C-12.28308874 38.65597795 -11.18057427 35.04083204 -10.07861423 31.42546177 C-7.80516763 23.96716846 -5.52491682 16.51092203 -3.22485352 9.06079102 C-3.01338181 8.37146484 -2.8019101 7.68213867 -2.58403015 6.97192383 C-1.11558121 2.23116243 -1.11558121 2.23116243 0 0 Z " fill="#99c965" transform="translate(24,219)"/>
<path d="M0 0 C27.39 0 54.78 0 83 0 C81.7395026 5.67223832 80.45339691 11.15793526 78.76928711 16.69116211 C78.5560228 17.40127441 78.34275848 18.11138672 78.12303162 18.84301758 C77.42765052 21.15543195 76.72762336 23.46640857 76.02734375 25.77734375 C75.53911928 27.3962971 75.05113184 29.01532195 74.56336975 30.63441467 C73.54582681 34.00958015 72.52608995 37.38407197 71.50463867 40.75805664 C70.19418042 45.08697696 68.88826471 49.41725125 67.58383846 53.74799252 C66.57900833 57.08290137 65.57231868 60.41724646 64.56500435 63.75140572 C64.08250808 65.34890514 63.60047472 66.94654444 63.11890984 68.54432487 C62.44819656 70.76830434 61.77510811 72.99155058 61.10131836 75.21459961 C60.90233948 75.87587357 60.7033606 76.53714752 60.49835205 77.21846008 C59.78488377 79.56556154 59.09931293 81.80137415 58 84 C30.94 84 3.88 84 -24 84 C-23.28824666 78.30597332 -22.53417379 73.89600194 -20.8828125 68.54589844 C-20.66969421 67.84889832 -20.45657593 67.15189819 -20.23699951 66.43377686 C-19.5392035 64.15701582 -18.8321548 61.88324473 -18.125 59.609375 C-17.63496998 58.01632097 -17.14555937 56.42307628 -16.65673828 54.82965088 C-15.37402788 50.65375884 -14.08357551 46.48030099 -12.79125977 42.30737305 C-11.22052074 37.23070187 -9.65836263 32.15138532 -8.09555054 27.07226944 C-6.88017414 23.12257348 -5.66333299 19.17335086 -4.44189453 15.2255249 C-4.2178595 14.50014526 -3.99382446 13.77476562 -3.76300049 13.02740479 C-3.15890655 11.07159287 -2.55385404 9.1160771 -1.94873047 7.1605835 C-1.2375439 4.79134946 -0.59995374 2.39981495 0 0 Z " fill="#99c965" transform="translate(257,118)"/>
<path d="M0 0 C0.81141449 -0.0065712 1.62282898 -0.0131424 2.45883179 -0.01991272 C5.15647463 -0.03969711 7.85406163 -0.05132071 10.55175781 -0.0612793 C11.47133522 -0.06535482 12.39091263 -0.06943035 13.33835602 -0.07362938 C18.20701373 -0.09451374 23.07564307 -0.10880422 27.94433594 -0.11816406 C32.97619644 -0.12922332 38.00761407 -0.1636108 43.03931808 -0.20333576 C46.90493598 -0.22947476 50.77044805 -0.23785356 54.63614655 -0.24144554 C56.49090815 -0.24631987 58.34566478 -0.2579579 60.20034027 -0.27648354 C62.79797946 -0.30081373 65.39446941 -0.29992119 67.9921875 -0.29296875 C69.14105942 -0.31218384 69.14105942 -0.31218384 70.31314087 -0.33178711 C73.93022267 -0.29652208 76.08640388 0.07502351 79.20565796 1.96307373 C81.94127206 4.91855871 82.21923695 6.55190006 82.44085693 10.46633911 C82.05021205 16.16017745 80.17896632 21.48462463 78.45019531 26.8918457 C78.04614464 28.19653691 77.6435713 29.50168645 77.24240112 30.80726624 C76.18944245 34.2192754 75.11576163 37.62441133 74.03771973 41.02856445 C72.94162194 44.50418498 71.8672412 47.98650524 70.79003906 51.46801758 C69.21585378 56.54084107 67.63498601 61.61149037 66.03662109 66.67675781 C65.71605743 67.69329941 65.39549377 68.709841 65.06521606 69.75718689 C64.25488281 72.17700195 64.25488281 72.17700195 63.25488281 74.17700195 C32.56488281 74.17700195 1.87488281 74.17700195 -29.74511719 74.17700195 C-29.03213737 69.18614324 -28.24963198 65.0801035 -26.81152344 60.33959961 C-26.61791229 59.69644806 -26.42430115 59.05329651 -26.224823 58.39065552 C-25.59077565 56.28923427 -24.94940365 54.1901338 -24.30761719 52.09106445 C-23.86268029 50.62383659 -23.41810584 49.15649878 -22.97387695 47.6890564 C-22.04569665 44.62692094 -21.11403131 41.56587551 -20.1796875 38.50561523 C-18.98017985 34.57629231 -17.78812636 30.64475615 -16.59846497 26.7124424 C-15.68303027 23.688644 -14.76439357 20.66582629 -13.84469604 17.64332199 C-13.40368238 16.19304109 -12.9635156 14.74250239 -12.52420044 13.29170609 C-11.91219568 11.27283717 -11.29606275 9.25527632 -10.67871094 7.23803711 C-10.3286499 6.08888824 -9.97858887 4.93973938 -9.61791992 3.75576782 C-7.93471697 -1.21739065 -4.64492077 0.01613638 0 0 Z " fill="#99c965" transform="translate(393.7451171875,26.822998046875)"/>
<path d="M0 0 C0.73511307 0.00359528 1.47022614 0.00719055 2.22761536 0.01089478 C2.99829346 0.01074875 3.76897156 0.01060272 4.56300354 0.01045227 C7.12237823 0.01115157 9.68168104 0.01894471 12.24104309 0.02676392 C14.01081299 0.02862804 15.7805834 0.03005197 17.550354 0.03105164 C22.2176505 0.03487728 26.88491607 0.04470796 31.55220032 0.05575562 C36.31110719 0.06596873 41.07001905 0.07054904 45.82893372 0.07559204 C55.17334837 0.08633019 64.51774004 0.10340717 73.86213684 0.12442017 C73.26779062 4.97294892 72.2929538 9.45614978 70.8684845 14.12612915 C70.66833237 14.78729736 70.46818024 15.44846558 70.26196289 16.12966919 C69.6050724 18.29485153 68.94080833 20.45768953 68.27619934 22.62051392 C67.81361206 24.13822604 67.35140938 25.65605544 66.88957214 27.17399597 C65.92269133 30.34799352 64.95235967 33.5209076 63.97932434 36.69302368 C62.73786085 40.74060717 61.50319463 44.79022291 60.27089882 48.84060574 C59.31724954 51.97351745 58.36089584 55.10559825 57.40365219 58.23741341 C56.94777425 59.72942582 56.49250426 61.22162415 56.03787613 62.71401787 C55.39936314 64.80791965 54.75743975 66.90074643 54.11457825 68.99331665 C53.75119354 70.18021591 53.38780884 71.36711517 53.01341248 72.58998108 C51.74784412 76.4753011 50.29691225 80.29835241 48.86213684 84.12442017 C22.79213684 84.12442017 -3.27786316 84.12442017 -30.13786316 84.12442017 C-29.46979657 78.77988744 -28.88361355 74.70682211 -27.34367371 69.73110962 C-26.97626572 68.53238724 -26.60885773 67.33366486 -26.23031616 66.09861755 C-25.82854093 64.81160299 -25.42662593 63.52463204 -25.02458191 62.23770142 C-24.60902555 60.89040299 -24.19406372 59.54292107 -23.77966309 58.19526672 C-22.690548 54.65900849 -21.59349092 51.12526441 -20.49467468 47.5920105 C-19.38984881 44.03462432 -18.29246029 40.47494686 -17.19450378 36.91543579 C-15.21036706 30.48633439 -13.22047042 24.05905859 -11.22218323 17.63433838 C-10.47430707 15.21348108 -9.73510102 12.78993414 -9.00300598 10.36425781 C-8.64507965 9.18062653 -8.28715332 7.99699524 -7.91838074 6.77749634 C-7.59944351 5.71383347 -7.28050629 4.65017059 -6.9519043 3.55427551 C-5.56152099 -0.59592054 -4.16159647 0.00858859 0 0 Z " fill="#99c965" transform="translate(60.13786315917969,117.87557983398438)"/>
<path d="M0 0 C28.71 0 57.42 0 87 0 C85.79933241 5.40300417 84.63164256 10.51735742 83.04467773 15.77319336 C82.6676622 17.02736557 82.29064667 18.28153778 81.90220642 19.57371521 C81.49612659 20.91246246 81.08991942 22.25117109 80.68359375 23.58984375 C80.26262909 24.98459429 79.84190258 26.37941673 79.42140198 27.77430725 C78.54509949 30.67869109 77.66660271 33.58239854 76.78637695 36.4855957 C75.65751193 40.20917152 74.53320509 43.93410454 73.41038418 47.6595068 C72.54452271 50.53118457 71.67680278 53.40229795 70.80845833 56.27322578 C70.39295001 57.64743868 69.97790215 59.02179089 69.56332207 60.3962841 C68.98600742 62.30892818 68.40603301 64.22076883 67.82592773 66.13256836 C67.4966478 67.22016953 67.16736786 68.30777069 66.82810974 69.42832947 C66 72 66 72 65 74 C36.29 74 7.58 74 -22 74 C-19.74979717 62.74898584 -19.74979717 62.74898584 -18.04467773 57.20507812 C-17.6676622 55.9710022 -17.29064667 54.73692627 -16.90220642 53.4654541 C-16.49615973 52.15400395 -16.0899518 50.84260371 -15.68359375 49.53125 C-15.26248729 48.16039373 -14.8417635 46.78941985 -14.42140198 45.41833496 C-13.54603707 42.56670052 -12.66750904 39.71606854 -11.78637695 36.86621094 C-10.65642681 33.21139398 -9.53237719 29.55479622 -8.41038418 25.8975296 C-7.54462208 23.07642759 -6.6768989 20.2559322 -5.80845833 17.43565369 C-5.39305589 16.08653057 -4.97800841 14.73729811 -4.56332207 13.38795471 C-3.98602634 11.51132599 -3.40604319 9.63552461 -2.82592773 7.75976562 C-2.4966478 6.69294556 -2.16736786 5.62612549 -1.82810974 4.52697754 C-1 2 -1 2 0 0 Z " fill="#99c965" transform="translate(180,27)"/>
<path d="M0 0 C27.39 0 54.78 0 83 0 C76.10307836 24.13922575 76.10307836 24.13922575 72.9140625 34.64453125 C72.45132935 36.17563538 72.45132935 36.17563538 71.97924805 37.7376709 C70.86290833 41.42980804 69.74381253 45.12111143 68.625 48.8125 C66.10875 57.124375 63.5925 65.43625 61 74 C33.61 74 6.22 74 -22 74 C-19.49430627 63.97722509 -16.94580643 54.11491254 -13.92578125 44.2578125 C-13.55647995 43.04221649 -13.18717865 41.82662048 -12.8066864 40.57418823 C-11.84171637 37.40138751 -10.87318988 34.22970237 -9.90307617 31.05847168 C-9.10727462 28.45311808 -8.31583624 25.84644767 -7.52445698 23.239748 C-6.57695864 20.12014152 -5.62635227 17.00148384 -4.67578125 13.8828125 C-4.32163651 12.7183963 -3.96749176 11.5539801 -3.60261536 10.35427856 C-3.11156563 8.75022659 -3.11156563 8.75022659 -2.6105957 7.11376953 C-2.32287796 6.17163605 -2.03516022 5.22950256 -1.73872375 4.25881958 C-1 2 -1 2 0 0 Z " fill="#99c965" transform="translate(285,27)"/>
<path d="M0 0 C1.11234512 -0.00021904 1.11234512 -0.00021904 2.24716187 -0.0004425 C4.70370385 0.00025539 7.16017045 0.00804206 9.61669922 0.01586914 C11.31777912 0.01773376 13.01885956 0.01915745 14.71994019 0.02015686 C19.20145139 0.02397861 23.68293029 0.03380599 28.16442871 0.04486084 C32.73575402 0.05508231 37.30708453 0.05965606 41.87841797 0.06469727 C50.85108843 0.07542854 59.82373489 0.09250088 68.79638672 0.11352539 C66.70763747 8.87390586 64.24895412 17.47980776 61.60107422 26.08618164 C61.20393737 27.38456027 60.8070614 28.68301872 60.41043091 29.98155212 C59.37786097 33.35946977 58.34160226 36.73624446 57.30456543 40.11279297 C56.455868 42.8782998 55.60977234 45.64459936 54.7638073 48.41094303 C53.01674018 54.12389569 51.26766273 59.83623255 49.51464844 65.54736328 C49.2061496 66.55263565 48.89765076 67.55790802 48.57980347 68.59364319 C48.0057574 70.44007864 47.40784831 72.27914062 46.79638672 74.11352539 C20.39638672 74.11352539 -6.00361328 74.11352539 -33.20361328 74.11352539 C-29.82484024 60.59843322 -29.82484024 60.59843322 -28.3659668 55.68994141 C-28.03875137 54.58582413 -27.71153595 53.48170685 -27.37440491 52.34413147 C-27.03058273 51.19682053 -26.68676056 50.04950958 -26.33251953 48.86743164 C-25.9689183 47.65329086 -25.60531708 46.43915009 -25.23069763 45.18821716 C-24.46678122 42.6439896 -23.70132018 40.10027771 -22.93383789 37.55712891 C-21.95476016 34.30995341 -20.98914323 31.0589292 -20.02627659 27.80691624 C-19.09654049 24.67828803 -18.15089672 21.55446871 -17.20751953 18.42993164 C-16.69482262 16.6877108 -16.69482262 16.6877108 -16.17176819 14.91029358 C-15.8414006 13.82824142 -15.51103302 12.74618927 -15.1706543 11.63134766 C-14.88658218 10.68381119 -14.60251007 9.73627472 -14.30982971 8.76002502 C-11.15189289 1.20501282 -7.61775666 -0.03893287 0 0 Z " fill="#99c965" transform="translate(93.20361328125,26.886474609375)"/>
</svg>
